<mxfile host="app.diagrams.net" modified="2023-08-25T12:45:02.074Z" agent="Mozilla/5.0 (Macintosh; Intel Mac OS X 10_15_7) AppleWebKit/537.36 (KHTML, like Gecko) Chrome/116.0.0.0 Safari/537.36" version="21.6.9" etag="t4GK-b4n4VGDYlQe1D1N" type="github">
  <diagram name="StrÃ¡nka-1" id="3PBPj4A7SnuS5fqXDSdj">
    <mxGraphModel>
      <root>
        <mxCell id="0" />
        <mxCell id="1" parent="0" />
      </root>
    </mxGraphModel>
  </diagram>
</mxfile>
